<?xml version="1.0" standalone="no"?><!DOCTYPE svg PUBLIC "-//W3C//DTD SVG 1.1//EN" "http://www.w3.org/Graphics/SVG/1.1/DTD/svg11.dtd"><svg t="1518400224262" class="icon" style="" viewBox="0 0 1024 1024" version="1.1" xmlns="http://www.w3.org/2000/svg" p-id="40327" xmlns:xlink="http://www.w3.org/1999/xlink" width="200" height="200"><defs><style type="text/css"></style></defs><path d="M602 168.2c-22.5-75-94.3-71.2-94.3-71.2 100.8 49.4 55.5 119.5 55.5 119.5l-58.5-59.7 22.3-24.4-15.3-14.1-12.1 10.9-22.6-0.3-46 46.7 27.9 25.3 17.3-16.8 59.6 58c-50.6 33.2-96.7-21.5-96.7-21.5L421 236.5l13.8 16.2-2.4 3.2c-6.4-0.6-9.1 2.3-9.1 2.3-15.9 15.3 3.2 23.8 3.2 23.8 18.5 4.1 17.6-15 17.6-15l3.5-4.4c69.6 37.7 110.8 3.8 110.8 3.8l20 18.8 27.3-27.4-17.9-19.4c0.1 0.1 24.5-35.7 14.2-70.2zM351 511.1H223v-128h128v128z m448.8-128h-128v128h128v-128zM276.9 319.4h468.9v23.1H276.9z" fill="#ffffff" p-id="40328"></path><path d="M299.954 342.594v41.3h-23.1v-41.3zM745.736 342.532v41.2h-23.1v-41.2z" fill="#ffffff" p-id="40329"></path><path d="M774.9 465.1c55.7 0 100.8 45.1 100.8 100.8s-45.1 100.8-100.8 100.8-100.8-45.1-100.8-100.8 45.1-100.8 100.8-100.8zM147.8 566.4c0 55.7 45.1 100.8 100.8 100.8s100.8-45.1 100.8-100.8c0-55.7-45.1-100.8-100.8-100.8s-100.8 45.2-100.8 100.8z" fill="#ffffff" p-id="40330"></path><path d="M926.6 867.2H624.7v-65.5s41.5-119.3 150.9-119.3 150.9 119.3 150.9 119.3v65.5z m-527.3-65s-41.5-119.3-150.9-119.3-151 119.3-151 119.3v65.5h301.9v-65.5z" fill="#ffffff" p-id="40331"></path><path d="M383.4 544.5c0 70.7 57.3 128 128 128s128-57.3 128-128-57.3-128-128-128-128 57.3-128 128z" fill="#ffffff" p-id="40332"></path><path d="M702.7 843.8S650 692.3 511.1 692.3 319.5 843.8 319.5 843.8V927h383.3v-83.2z" fill="#ffffff" p-id="40333"></path></svg>