<?xml version="1.0" standalone="no"?><!DOCTYPE svg PUBLIC "-//W3C//DTD SVG 1.1//EN" "http://www.w3.org/Graphics/SVG/1.1/DTD/svg11.dtd"><svg t="1518423572508" class="icon" style="" viewBox="0 0 1024 1024" version="1.1" xmlns="http://www.w3.org/2000/svg" p-id="1538" xmlns:xlink="http://www.w3.org/1999/xlink" width="200" height="200"><defs><style type="text/css"></style></defs><path d="M854.1 928.2H169.9c-5.5 0-10-4.5-10-10v-811c0-5.5 4.5-10 10-10H854c5.5 0 10 4.5 10 10v811.1c0.1 5.4-4.4 9.9-9.9 9.9z" fill="#FFFFFF" p-id="1539"></path><path d="M193 128h30v767.6h-30z" fill="#21B3E2" p-id="1540"></path><path d="M757 457.8c-53.1-177.3-222.8-168.3-222.8-168.3 238.1 116.8 131.2 282.3 131.2 282.3L527.2 430.7 580 373l-36.1-33.4-28.5 25.7-53.4-0.7-109 110.6 66 59.8 41-39.6 140.9 137c-119.4 78.5-228.4-50.8-228.4-50.8l-43 37.5 32.6 38.3-5.6 7.6c-15.2-1.4-21.5 5.6-21.5 5.6-37.5 36.2 7.6 56.3 7.6 56.3 43.8 9.7 41.7-35.5 41.7-35.5l8.3-10.4c164.5 89 261.7 9 261.7 9l47.2 44.5 64.5-64.7-42.3-45.9c-0.1 0 57.6-84.6 33.3-166.1z" fill="#21B3E2" p-id="1541"></path></svg>