<?xml version="1.0" standalone="no"?><!DOCTYPE svg PUBLIC "-//W3C//DTD SVG 1.1//EN" "http://www.w3.org/Graphics/SVG/1.1/DTD/svg11.dtd"><svg t="1518399983845" class="icon" style="" viewBox="0 0 1024 1024" version="1.1" xmlns="http://www.w3.org/2000/svg" p-id="39966" xmlns:xlink="http://www.w3.org/1999/xlink" width="200" height="200"><defs><style type="text/css"></style></defs><path d="M806.555108 552.444131c-43.868113-45.877887-89.230254-93.318362-89.230254-200.166879 0-80.969103-47.350424-153.961534-120.989585-187.096189 0.652869-4.298909 0.982374-8.626471 0.982374-12.914124 0-46.935985-38.183647-85.120656-85.119633-85.120656-46.935985 0-85.120656 38.184671-85.120656 85.120656 0 4.285606 0.330528 8.614192 0.983397 12.915148-73.639161 33.134655-120.989585 106.127086-120.989585 187.095165 0 106.848517-45.36214 154.287969-89.231277 200.166879-36.397978 38.065967-70.777997 74.020854-70.777997 139.850142 0 31.550577 24.367991 61.352323 70.469981 86.182848 42.889833 23.099091 101.483322 40.417525 169.696913 50.178843-0.089028 1.178849-0.152473 2.38942-0.152473 3.64604 0 68.992327 56.129368 125.120672 125.121695 125.120672 68.993351 0 125.122719-56.129368 125.122719-125.120672 0-1.255597-0.063445-2.466168-0.152473-3.64604 68.212568-9.761318 126.806057-27.079752 169.69589-50.178843 46.100968-24.830525 70.468958-54.632271 70.468958-86.182848C877.333104 626.464985 842.953086 590.510098 806.555108 552.444131zM512.196986 117.381407c19.237133 0 34.887578 15.649422 34.887578 34.884508 0 19.23611-15.650445 34.885532-34.887578 34.885532-19.235087 0-34.884508-15.649422-34.884508-34.885532C477.312478 133.030829 492.9619 117.381407 512.196986 117.381407zM254.142699 587.153654c45.961798-48.040133 103.162568-107.827821 103.162568-234.877425 0-61.906955 36.431747-117.227911 93.130074-141.93257 16.164145 17.232476 38.46608 27.042913 61.760622 27.042913 23.300682 0 45.595454-9.809413 61.742203-27.04189 56.710606 24.708751 93.149517 80.029708 93.149517 141.931546 0 127.052674 57.20077 186.838316 103.157451 234.870262l0.788969 0.828878c6.925736 7.261381 13.528108 14.184047 19.527752 20.940938-19.189038 15.934924-54.641481 30.249955-100.749612 40.590464-51.544957 11.559267-112.963795 17.669428-177.61628 17.669428-64.61053 0-126.017088-6.094812-177.584558-17.625426-46.150086-10.31902-81.653695-24.607444-100.891851-40.514739C239.869624 602.111321 246.665401 594.96455 254.142699 587.153654zM512.196986 907.188574c-40.625256 0-73.798796-32.518624-74.860988-72.892147 25.015743 2.072195 50.173726 3.122107 74.860988 3.122107 24.687262 0 49.844222-1.048889 74.859965-3.122107C585.99476 874.668926 552.821219 907.188574 512.196986 907.188574zM512.196986 787.182386c-207.761857 0-314.89997-66.51081-314.89997-94.889137 0-16.901948 3.296069-31.707143 10.31902-46.115294 27.966958 20.605294 69.300342 38.011732 120.078843 50.51858 55.023174 13.551644 118.822223 20.714787 184.501084 20.714787 65.700351 0 129.506563-7.172353 184.517457-20.74037 50.759057-12.519128 92.069929-29.945009 120.011304-50.570769 7.05672 14.437827 10.370185 29.269627 10.370185 46.193065C827.096956 720.671577 719.958844 787.182386 512.196986 787.182386z" p-id="39967" fill="#ffffff"></path></svg>