<?xml version="1.0" standalone="no"?><!DOCTYPE svg PUBLIC "-//W3C//DTD SVG 1.1//EN" "http://www.w3.org/Graphics/SVG/1.1/DTD/svg11.dtd"><svg t="1518400325088" class="icon" style="" viewBox="0 0 1024 1024" version="1.1" xmlns="http://www.w3.org/2000/svg" p-id="40608" xmlns:xlink="http://www.w3.org/1999/xlink" width="200" height="200"><defs><style type="text/css"></style></defs><path d="M861.173308 269.297009 753.756537 147.76081c-11.284349-12.727371-26.863786-18.37794-43.798105-16.969894L199.723971 130.790916c-14.126822 1.408445-28.280226 7.076602-45.223738 19.786984-12.701788 7.076202-21.212618 25.437154-25.429159 50.874907l0 621.868173c2.81709 43.832282 25.429159 67.844801 70.652897 70.660892l635.995595 0c33.930995-2.816091 52.308535-21.195629 56.53347-56.525476L892.253036 328.656563C892.253236 304.627455 882.359944 286.249515 861.173308 269.297009zM652.006723 342.774991l155.441211 0 0 70.661492-155.441211 0L652.006723 342.774991zM369.326581 315.94618c0-35.347834 12.709783-66.435757 36.764873-90.464865 25.437753-25.437753 55.108436-38.164524 90.439882-38.164524 35.322052 0 65.017718 12.726771 90.464465 38.164524 24.01172 24.029108 36.731096 53.708985 36.731096 90.464865 0 35.314057-12.719376 64.993734-36.731096 89.039431-24.054691 25.420765-55.142413 36.739491-90.464465 38.148136-35.331445-1.408445-65.002328-12.727371-90.439882-38.148136C382.036363 380.940115 369.326581 349.851193 369.326581 315.94618zM807.447934 554.793842l0 42.38906-607.723963 0 0-42.38906L807.447934 554.793842zM341.072337 342.774991l0 70.661492-155.475188 0 0-70.661492L341.072337 342.774991zM807.447934 681.981209l0 84.813297-607.723963 0 0-84.813297L807.447934 681.981209zM520.55125 284.858458l-24.019715-67.844801-25.446747 67.844801-72.078331 1.391057 57.951109 45.223738-19.794579 70.67888 59.368548-42.407048 59.359554 42.407048-19.787584-70.67888 57.943514-45.223738L520.55125 284.858458z" p-id="40609" fill="#ffffff"></path></svg>