<?xml version="1.0" standalone="no"?><!DOCTYPE svg PUBLIC "-//W3C//DTD SVG 1.1//EN" "http://www.w3.org/Graphics/SVG/1.1/DTD/svg11.dtd"><svg t="1522755965166" class="icon" style="" viewBox="0 0 1024 1024" version="1.1" xmlns="http://www.w3.org/2000/svg" p-id="6478" xmlns:xlink="http://www.w3.org/1999/xlink" width="200" height="200"><defs><style type="text/css"></style></defs><path d="M519.6 870.4c-101.5 101.5-266.1 101.5-367.5 0C50.5 768.9 50.5 604.4 152 502.9c91.6-91.6 234.4-100.2 336-26.5L819.4 145c10.7-10.7 28-10.7 38.7 0 10.7 10.7 10.7 28 0 38.7l-38.7 38.7 96.7 96.7c10.7 10.7 10.7 28 0 38.7-10.7 10.7-28 10.7-38.7 0l-96.7-96.7-58 58 96.7 96.7c10.7 10.7 10.7 28 0 38.7-10.7 10.7-27.9 10.7-38.7 0L684 357.8 528.7 513.1C620.6 615.1 617.8 772.2 519.6 870.4zM190.7 541.6c-80.1 80.1-80.2 210 0 290.2 80.1 80.1 210 80.2 290.2 0 80.1-80.1 80.1-210 0-290.2C400.7 461.4 270.8 461.5 190.7 541.6z" p-id="6479" fill="#7D7D7D"></path></svg>